<svg xmlns="http://www.w3.org/2000/svg" viewBox="0 0 800 200">
  <defs>
    <linearGradient id="bgGrad" x1="0%" y1="0%" x2="100%" y2="100%">
      <stop offset="0%" style="stop-color:#000000;stop-opacity:1" />
      <stop offset="100%" style="stop-color:#0a0a0a;stop-opacity:1" />
    </linearGradient>
  </defs>
  
  <!-- Background -->
  <rect width="800" height="200" fill="url(#bgGrad)"/>
  
  <!-- Floating elements - small X marks -->
  <g fill="white" opacity="0.08">
    <path d="M522,32 L524,32 L527,36 L530,32 L532,32 L528,37 L532,42 L530,42 L527,38 L524,42 L522,42 L526,37 Z"/>
    <path d="M682,142 L684,142 L687,146 L690,142 L692,142 L688,147 L692,152 L690,152 L687,148 L684,152 L682,152 L686,147 Z"/>
    <path d="M602,162 L604,162 L607,166 L610,162 L612,162 L608,167 L612,172 L610,172 L607,168 L604,172 L602,172 L606,167 Z"/>
    <path d="M550,95 L552,95 L555,99 L558,95 L560,95 L556,100 L560,105 L558,105 L555,101 L552,105 L550,105 L554,100 Z"/>
  </g>
  
  <!-- Floating elements - Twitter birds (nostalgic touch) -->
  <g fill="white" opacity="0.08">
    <!-- Bird 1 - top right area, large -->
    <path transform="translate(695, 20) scale(0.9)" d="M24 4.557c-.883.392-1.832.656-2.828.775 1.017-.609 1.798-1.574 2.165-2.724-.951.564-2.005.974-3.127 1.195-.897-.957-2.178-1.555-3.594-1.555-3.179 0-5.515 2.966-4.797 6.045-4.091-.205-7.719-2.165-10.148-5.144-1.29 2.213-.669 5.108 1.523 6.574-.806-.026-1.566-.247-2.229-.616-.054 2.281 1.581 4.415 3.949 4.89-.693.188-1.452.232-2.224.084.626 1.956 2.444 3.379 4.6 3.419-2.07 1.623-4.678 2.348-7.29 2.04 2.179 1.397 4.768 2.212 7.548 2.212 9.142 0 14.307-7.721 13.995-14.646.962-.695 1.797-1.562 2.457-2.549z"/>
    <!-- Bird 2 - middle right -->
    <path transform="translate(745, 75) scale(0.75)" d="M24 4.557c-.883.392-1.832.656-2.828.775 1.017-.609 1.798-1.574 2.165-2.724-.951.564-2.005.974-3.127 1.195-.897-.957-2.178-1.555-3.594-1.555-3.179 0-5.515 2.966-4.797 6.045-4.091-.205-7.719-2.165-10.148-5.144-1.29 2.213-.669 5.108 1.523 6.574-.806-.026-1.566-.247-2.229-.616-.054 2.281 1.581 4.415 3.949 4.89-.693.188-1.452.232-2.224.084.626 1.956 2.444 3.379 4.6 3.419-2.07 1.623-4.678 2.348-7.29 2.04 2.179 1.397 4.768 2.212 7.548 2.212 9.142 0 14.307-7.721 13.995-14.646.962-.695 1.797-1.562 2.457-2.549z"/>
    <!-- Bird 3 - bottom right -->
    <path transform="translate(660, 150) scale(0.7)" d="M24 4.557c-.883.392-1.832.656-2.828.775 1.017-.609 1.798-1.574 2.165-2.724-.951.564-2.005.974-3.127 1.195-.897-.957-2.178-1.555-3.594-1.555-3.179 0-5.515 2.966-4.797 6.045-4.091-.205-7.719-2.165-10.148-5.144-1.29 2.213-.669 5.108 1.523 6.574-.806-.026-1.566-.247-2.229-.616-.054 2.281 1.581 4.415 3.949 4.89-.693.188-1.452.232-2.224.084.626 1.956 2.444 3.379 4.6 3.419-2.07 1.623-4.678 2.348-7.29 2.04 2.179 1.397 4.768 2.212 7.548 2.212 9.142 0 14.307-7.721 13.995-14.646.962-.695 1.797-1.562 2.457-2.549z"/>
    <!-- Bird 4 - top center-right -->
    <path transform="translate(580, 25) scale(0.6)" d="M24 4.557c-.883.392-1.832.656-2.828.775 1.017-.609 1.798-1.574 2.165-2.724-.951.564-2.005.974-3.127 1.195-.897-.957-2.178-1.555-3.594-1.555-3.179 0-5.515 2.966-4.797 6.045-4.091-.205-7.719-2.165-10.148-5.144-1.29 2.213-.669 5.108 1.523 6.574-.806-.026-1.566-.247-2.229-.616-.054 2.281 1.581 4.415 3.949 4.89-.693.188-1.452.232-2.224.084.626 1.956 2.444 3.379 4.6 3.419-2.07 1.623-4.678 2.348-7.29 2.04 2.179 1.397 4.768 2.212 7.548 2.212 9.142 0 14.307-7.721 13.995-14.646.962-.695 1.797-1.562 2.457-2.549z"/>
    <!-- Bird 5 - middle area -->
    <path transform="translate(620, 110) scale(0.5)" d="M24 4.557c-.883.392-1.832.656-2.828.775 1.017-.609 1.798-1.574 2.165-2.724-.951.564-2.005.974-3.127 1.195-.897-.957-2.178-1.555-3.594-1.555-3.179 0-5.515 2.966-4.797 6.045-4.091-.205-7.719-2.165-10.148-5.144-1.29 2.213-.669 5.108 1.523 6.574-.806-.026-1.566-.247-2.229-.616-.054 2.281 1.581 4.415 3.949 4.89-.693.188-1.452.232-2.224.084.626 1.956 2.444 3.379 4.6 3.419-2.07 1.623-4.678 2.348-7.29 2.04 2.179 1.397 4.768 2.212 7.548 2.212 9.142 0 14.307-7.721 13.995-14.646.962-.695 1.797-1.562 2.457-2.549z"/>
    <!-- Bird 6 - far right -->
    <path transform="translate(760, 130) scale(0.55)" d="M24 4.557c-.883.392-1.832.656-2.828.775 1.017-.609 1.798-1.574 2.165-2.724-.951.564-2.005.974-3.127 1.195-.897-.957-2.178-1.555-3.594-1.555-3.179 0-5.515 2.966-4.797 6.045-4.091-.205-7.719-2.165-10.148-5.144-1.29 2.213-.669 5.108 1.523 6.574-.806-.026-1.566-.247-2.229-.616-.054 2.281 1.581 4.415 3.949 4.89-.693.188-1.452.232-2.224.084.626 1.956 2.444 3.379 4.6 3.419-2.07 1.623-4.678 2.348-7.29 2.04 2.179 1.397 4.768 2.212 7.548 2.212 9.142 0 14.307-7.721 13.995-14.646.962-.695 1.797-1.562 2.457-2.549z"/>
  </g>
  
  <!-- Small dots scattered -->
  <g fill="white" opacity="0.1">
    <circle cx="560" cy="55" r="1.5"/>
    <circle cx="640" cy="75" r="1"/>
    <circle cx="710" cy="55" r="1"/>
    <circle cx="590" cy="140" r="1"/>
    <circle cx="720" cy="165" r="1.5"/>
  </g>
  
  <!-- Main X logo -->
  <g transform="translate(100, 100)">
    <path d="M-28,-35 L-6,-35 L12,-5 L30,-35 L45,-35 L18,5 L47,45 L25,45 L5,12 L-18,45 L-33,45 L-2,2 L-28,-35 Z" 
          fill="white"/>
  </g>
  
  <!-- Text -->
  <text x="180" y="90" font-family="system-ui, -apple-system, sans-serif" font-size="42" font-weight="600" fill="white">
    Twitter MCP
  </text>
  <text x="180" y="125" font-family="system-ui, -apple-system, sans-serif" font-size="16" fill="#71767b">
    Model Context Protocol server for X
  </text>
</svg>