<svg xmlns="http://www.w3.org/2000/svg" viewBox="0 0 800 200">
  <defs>
    <linearGradient id="bgGrad" x1="0%" y1="0%" x2="100%" y2="100%">
      <stop offset="0%" style="stop-color:#000000;stop-opacity:1" />
      <stop offset="100%" style="stop-color:#0a0a0a;stop-opacity:1" />
    </linearGradient>
  </defs>
  
  <!-- Background -->
  <rect width="800" height="200" fill="url(#bgGrad)"/>
  
  <!-- Floating elements - small X marks -->
  <g fill="white" opacity="0.08">
    <path d="M520,30 L524,30 L530,38 L536,30 L540,30 L532,40 L540,50 L536,50 L530,42 L524,50 L520,50 L528,40 Z"/>
    <path d="M680,140 L683,140 L687,146 L691,140 L694,140 L689,147 L694,154 L691,154 L687,148 L683,154 L680,154 L685,147 Z"/>
    <path d="M600,160 L603,160 L607,166 L611,160 L614,160 L609,167 L614,174 L611,174 L607,168 L603,174 L600,174 L605,167 Z"/>
  </g>
  
  <!-- Floating elements - Twitter birds (nostalgic touch) -->
  <g fill="white" opacity="0.06">
    <!-- Bird 1 - top right area -->
    <path transform="translate(720, 35) scale(0.4)" d="M24 4.557c-.883.392-1.832.656-2.828.775 1.017-.609 1.798-1.574 2.165-2.724-.951.564-2.005.974-3.127 1.195-.897-.957-2.178-1.555-3.594-1.555-3.179 0-5.515 2.966-4.797 6.045-4.091-.205-7.719-2.165-10.148-5.144-1.29 2.213-.669 5.108 1.523 6.574-.806-.026-1.566-.247-2.229-.616-.054 2.281 1.581 4.415 3.949 4.89-.693.188-1.452.232-2.224.084.626 1.956 2.444 3.379 4.6 3.419-2.07 1.623-4.678 2.348-7.29 2.04 2.179 1.397 4.768 2.212 7.548 2.212 9.142 0 14.307-7.721 13.995-14.646.962-.695 1.797-1.562 2.457-2.549z"/>
    <!-- Bird 2 - middle right -->
    <path transform="translate(750, 95) scale(0.35)" d="M24 4.557c-.883.392-1.832.656-2.828.775 1.017-.609 1.798-1.574 2.165-2.724-.951.564-2.005.974-3.127 1.195-.897-.957-2.178-1.555-3.594-1.555-3.179 0-5.515 2.966-4.797 6.045-4.091-.205-7.719-2.165-10.148-5.144-1.29 2.213-.669 5.108 1.523 6.574-.806-.026-1.566-.247-2.229-.616-.054 2.281 1.581 4.415 3.949 4.89-.693.188-1.452.232-2.224.084.626 1.956 2.444 3.379 4.6 3.419-2.07 1.623-4.678 2.348-7.29 2.04 2.179 1.397 4.768 2.212 7.548 2.212 9.142 0 14.307-7.721 13.995-14.646.962-.695 1.797-1.562 2.457-2.549z"/>
    <!-- Bird 3 - bottom right -->
    <path transform="translate(690, 165) scale(0.3)" d="M24 4.557c-.883.392-1.832.656-2.828.775 1.017-.609 1.798-1.574 2.165-2.724-.951.564-2.005.974-3.127 1.195-.897-.957-2.178-1.555-3.594-1.555-3.179 0-5.515 2.966-4.797 6.045-4.091-.205-7.719-2.165-10.148-5.144-1.29 2.213-.669 5.108 1.523 6.574-.806-.026-1.566-.247-2.229-.616-.054 2.281 1.581 4.415 3.949 4.89-.693.188-1.452.232-2.224.084.626 1.956 2.444 3.379 4.6 3.419-2.07 1.623-4.678 2.348-7.29 2.04 2.179 1.397 4.768 2.212 7.548 2.212 9.142 0 14.307-7.721 13.995-14.646.962-.695 1.797-1.562 2.457-2.549z"/>
  </g>
  
  <!-- Small dots scattered -->
  <g fill="white" opacity="0.1">
    <circle cx="560" cy="45" r="2"/>
    <circle cx="620" cy="80" r="1.5"/>
    <circle cx="700" cy="60" r="1"/>
    <circle cx="580" cy="150" r="1.5"/>
    <circle cx="650" cy="120" r="2"/>
    <circle cx="760" cy="150" r="1"/>
  </g>
  
  <!-- Main X logo -->
  <g transform="translate(100, 100)">
    <path d="M-28,-35 L-6,-35 L12,-5 L30,-35 L45,-35 L18,5 L47,45 L25,45 L5,12 L-18,45 L-33,45 L-2,2 L-28,-35 Z" 
          fill="white"/>
  </g>
  
  <!-- Text -->
  <text x="180" y="90" font-family="system-ui, -apple-system, sans-serif" font-size="42" font-weight="600" fill="white">
    Twitter MCP
  </text>
  <text x="180" y="125" font-family="system-ui, -apple-system, sans-serif" font-size="16" fill="#71767b">
    Model Context Protocol server for X
  </text>
</svg>