<svg xmlns="http://www.w3.org/2000/svg" viewBox="0 0 1280 640" width="1280" height="640">
  <defs>
    <linearGradient id="bgGrad" x1="0%" y1="0%" x2="100%" y2="100%">
      <stop offset="0%" style="stop-color:#000000;stop-opacity:1" />
      <stop offset="100%" style="stop-color:#0a0a0a;stop-opacity:1" />
    </linearGradient>
  </defs>

  <!-- Background -->
  <rect width="1280" height="640" fill="url(#bgGrad)"/>

  <!-- ========== DECORATIVE: X marks scattered ========== -->
  <g fill="white" opacity="0.07">
    <!-- left zone -->
    <path d="M80,60 L83,60 L88,68 L93,60 L96,60 L90,70 L96,80 L93,80 L88,72 L83,80 L80,80 L86,70 Z"/>
    <path d="M40,300 L43,300 L48,308 L53,300 L56,300 L50,310 L56,320 L53,320 L48,312 L43,320 L40,320 L46,310 Z"/>
    <path d="M120,500 L123,500 L128,508 L133,500 L136,500 L130,510 L136,520 L133,520 L128,512 L123,520 L120,520 L126,510 Z"/>
    <!-- right zone -->
    <path d="M900,60 L903,60 L908,68 L913,60 L916,60 L910,70 L916,80 L913,80 L908,72 L903,80 L900,80 L906,70 Z"/>
    <path d="M1100,120 L1103,120 L1108,128 L1113,120 L1116,120 L1110,130 L1116,140 L1113,140 L1108,132 L1103,140 L1100,140 L1106,130 Z"/>
    <path d="M1200,300 L1203,300 L1208,308 L1213,300 L1216,300 L1210,310 L1216,320 L1213,320 L1208,312 L1203,320 L1200,320 L1206,310 Z"/>
    <path d="M980,500 L983,500 L988,508 L993,500 L996,500 L990,510 L996,520 L993,520 L988,512 L983,520 L980,520 L986,510 Z"/>
    <path d="M750,560 L753,560 L758,568 L763,560 L766,560 L760,570 L766,580 L763,580 L758,572 L753,580 L750,580 L756,570 Z"/>
    <path d="M820,80 L823,80 L828,88 L833,80 L836,80 L830,90 L836,100 L833,100 L828,92 L823,100 L820,100 L826,90 Z"/>
  </g>

  <!-- ========== DECORATIVE: Twitter birds scattered ========== -->
  <g fill="white" opacity="0.06">
    <!-- left zone birds -->
    <path transform="translate(50, 120) scale(1.4)" d="M24 4.557c-.883.392-1.832.656-2.828.775 1.017-.609 1.798-1.574 2.165-2.724-.951.564-2.005.974-3.127 1.195-.897-.957-2.178-1.555-3.594-1.555-3.179 0-5.515 2.966-4.797 6.045-4.091-.205-7.719-2.165-10.148-5.144-1.29 2.213-.669 5.108 1.523 6.574-.806-.026-1.566-.247-2.229-.616-.054 2.281 1.581 4.415 3.949 4.89-.693.188-1.452.232-2.224.084.626 1.956 2.444 3.379 4.6 3.419-2.07 1.623-4.678 2.348-7.29 2.04 2.179 1.397 4.768 2.212 7.548 2.212 9.142 0 14.307-7.721 13.995-14.646.962-.695 1.797-1.562 2.457-2.549z"/>
    <path transform="translate(30, 420) scale(1.1)" d="M24 4.557c-.883.392-1.832.656-2.828.775 1.017-.609 1.798-1.574 2.165-2.724-.951.564-2.005.974-3.127 1.195-.897-.957-2.178-1.555-3.594-1.555-3.179 0-5.515 2.966-4.797 6.045-4.091-.205-7.719-2.165-10.148-5.144-1.29 2.213-.669 5.108 1.523 6.574-.806-.026-1.566-.247-2.229-.616-.054 2.281 1.581 4.415 3.949 4.89-.693.188-1.452.232-2.224.084.626 1.956 2.444 3.379 4.6 3.419-2.07 1.623-4.678 2.348-7.29 2.04 2.179 1.397 4.768 2.212 7.548 2.212 9.142 0 14.307-7.721 13.995-14.646.962-.695 1.797-1.562 2.457-2.549z"/>
    <!-- right zone birds -->
    <path transform="translate(1100, 60) scale(1.6)" d="M24 4.557c-.883.392-1.832.656-2.828.775 1.017-.609 1.798-1.574 2.165-2.724-.951.564-2.005.974-3.127 1.195-.897-.957-2.178-1.555-3.594-1.555-3.179 0-5.515 2.966-4.797 6.045-4.091-.205-7.719-2.165-10.148-5.144-1.29 2.213-.669 5.108 1.523 6.574-.806-.026-1.566-.247-2.229-.616-.054 2.281 1.581 4.415 3.949 4.89-.693.188-1.452.232-2.224.084.626 1.956 2.444 3.379 4.6 3.419-2.07 1.623-4.678 2.348-7.29 2.04 2.179 1.397 4.768 2.212 7.548 2.212 9.142 0 14.307-7.721 13.995-14.646.962-.695 1.797-1.562 2.457-2.549z"/>
    <path transform="translate(1170, 200) scale(1.2)" d="M24 4.557c-.883.392-1.832.656-2.828.775 1.017-.609 1.798-1.574 2.165-2.724-.951.564-2.005.974-3.127 1.195-.897-.957-2.178-1.555-3.594-1.555-3.179 0-5.515 2.966-4.797 6.045-4.091-.205-7.719-2.165-10.148-5.144-1.29 2.213-.669 5.108 1.523 6.574-.806-.026-1.566-.247-2.229-.616-.054 2.281 1.581 4.415 3.949 4.89-.693.188-1.452.232-2.224.084.626 1.956 2.444 3.379 4.6 3.419-2.07 1.623-4.678 2.348-7.29 2.04 2.179 1.397 4.768 2.212 7.548 2.212 9.142 0 14.307-7.721 13.995-14.646.962-.695 1.797-1.562 2.457-2.549z"/>
    <path transform="translate(950, 480) scale(1.0)" d="M24 4.557c-.883.392-1.832.656-2.828.775 1.017-.609 1.798-1.574 2.165-2.724-.951.564-2.005.974-3.127 1.195-.897-.957-2.178-1.555-3.594-1.555-3.179 0-5.515 2.966-4.797 6.045-4.091-.205-7.719-2.165-10.148-5.144-1.29 2.213-.669 5.108 1.523 6.574-.806-.026-1.566-.247-2.229-.616-.054 2.281 1.581 4.415 3.949 4.89-.693.188-1.452.232-2.224.084.626 1.956 2.444 3.379 4.6 3.419-2.07 1.623-4.678 2.348-7.29 2.04 2.179 1.397 4.768 2.212 7.548 2.212 9.142 0 14.307-7.721 13.995-14.646.962-.695 1.797-1.562 2.457-2.549z"/>
    <path transform="translate(840, 520) scale(0.85)" d="M24 4.557c-.883.392-1.832.656-2.828.775 1.017-.609 1.798-1.574 2.165-2.724-.951.564-2.005.974-3.127 1.195-.897-.957-2.178-1.555-3.594-1.555-3.179 0-5.515 2.966-4.797 6.045-4.091-.205-7.719-2.165-10.148-5.144-1.29 2.213-.669 5.108 1.523 6.574-.806-.026-1.566-.247-2.229-.616-.054 2.281 1.581 4.415 3.949 4.89-.693.188-1.452.232-2.224.084.626 1.956 2.444 3.379 4.6 3.419-2.07 1.623-4.678 2.348-7.29 2.04 2.179 1.397 4.768 2.212 7.548 2.212 9.142 0 14.307-7.721 13.995-14.646.962-.695 1.797-1.562 2.457-2.549z"/>
  </g>

  <!-- ========== DECORATIVE: small dots ========== -->
  <g fill="white" opacity="0.12">
    <circle cx="160" cy="80" r="2"/>
    <circle cx="90" cy="220" r="1.5"/>
    <circle cx="180" cy="540" r="2"/>
    <circle cx="900" cy="50" r="1.5"/>
    <circle cx="1050" cy="110" r="2"/>
    <circle cx="1240" cy="400" r="1.5"/>
    <circle cx="1150" cy="560" r="2"/>
    <circle cx="780" cy="600" r="1.5"/>
  </g>

  <!-- ========== MAIN X LOGO (left side, large) ========== -->
  <g transform="translate(200, 320)">
    <path d="M-90,-112 L-18,-112 L38,-16 L96,-112 L144,-112 L58,16 L150,144 L80,144 L16,38 L-58,144 L-106,144 L-6,6 L-90,-112 Z"
          fill="white"/>
  </g>

  <!-- Vertical divider -->
  <line x1="620" y1="80" x2="620" y2="560" stroke="#333333" stroke-width="1.5"/>

  <!-- ========== TEXT (right side) ========== -->

  <!-- Title -->
  <text x="660" y="255"
        font-family="system-ui, -apple-system, 'Segoe UI', Roboto, sans-serif"
        font-size="88"
        font-weight="700"
        fill="#ffffff">Twitter MCP</text>

  <!-- Slogan -->
  <text x="664" y="318"
        font-family="system-ui, -apple-system, 'Segoe UI', Roboto, sans-serif"
        font-size="28"
        font-weight="400"
        fill="#71767b">Model Context Protocol server for X</text>

  <!-- Tag: Trends -->
  <rect x="664" y="370" width="100" height="42" rx="6" fill="#ffffff" opacity="0.08"/>
  <text x="714" y="398"
        font-family="system-ui, -apple-system, 'Segoe UI', Roboto, sans-serif"
        font-size="20" font-weight="600" fill="#ffffff"
        text-anchor="middle">Trends</text>

  <!-- Tag: Analyze -->
  <rect x="776" y="370" width="112" height="42" rx="6" fill="#ffffff" opacity="0.08"/>
  <text x="832" y="398"
        font-family="system-ui, -apple-system, 'Segoe UI', Roboto, sans-serif"
        font-size="20" font-weight="600" fill="#ffffff"
        text-anchor="middle">Analyze</text>

  <!-- Tag: Schedule -->
  <rect x="900" y="370" width="120" height="42" rx="6" fill="#ffffff" opacity="0.08"/>
  <text x="960" y="398"
        font-family="system-ui, -apple-system, 'Segoe UI', Roboto, sans-serif"
        font-size="20" font-weight="600" fill="#ffffff"
        text-anchor="middle">Schedule</text>

  <!-- Tag: Publish -->
  <rect x="1032" y="370" width="108" height="42" rx="6" fill="#ffffff" opacity="0.08"/>
  <text x="1086" y="398"
        font-family="system-ui, -apple-system, 'Segoe UI', Roboto, sans-serif"
        font-size="20" font-weight="600" fill="#ffffff"
        text-anchor="middle">Publish</text>

</svg>
